<svg version="1.1" xmlns="http://www.w3.org/2000/svg" style="display: block;" viewBox="0 0 2048 1971" width="664" height="639" preserveAspectRatio="none">
<defs>
	<linearGradient id="Gradient1" gradientUnits="userSpaceOnUse" x1="663.56" y1="1479.21" x2="576.849" y2="1679.72">
		<stop class="stop0" offset="0" stop-opacity="1" stop-color="rgb(215,215,215)"/>
		<stop class="stop1" offset="1" stop-opacity="1" stop-color="rgb(255,255,255)"/>
	</linearGradient>
	<linearGradient id="Gradient2" gradientUnits="userSpaceOnUse" x1="952.906" y1="611.052" x2="1013.43" y2="525.477">
		<stop class="stop0" offset="0" stop-opacity="1" stop-color="rgb(152,150,151)"/>
		<stop class="stop1" offset="1" stop-opacity="1" stop-color="rgb(177,182,183)"/>
	</linearGradient>
	<linearGradient id="Gradient3" gradientUnits="userSpaceOnUse" x1="1062.21" y1="1427.07" x2="839.479" y2="1665.37">
		<stop class="stop0" offset="0" stop-opacity="1" stop-color="rgb(181,182,188)"/>
		<stop class="stop1" offset="1" stop-opacity="1" stop-color="rgb(255,255,252)"/>
	</linearGradient>
	<linearGradient id="Gradient4" gradientUnits="userSpaceOnUse" x1="894.956" y1="1442.77" x2="764.408" y2="1404.78">
		<stop class="stop0" offset="0" stop-opacity="1" stop-color="rgb(157,7,5)"/>
		<stop class="stop1" offset="1" stop-opacity="1" stop-color="rgb(209,21,21)"/>
	</linearGradient>
	<linearGradient id="Gradient5" gradientUnits="userSpaceOnUse" x1="728.908" y1="588.793" x2="376.032" y2="781.89">
		<stop class="stop0" offset="0" stop-opacity="1" stop-color="rgb(150,150,150)"/>
		<stop class="stop1" offset="1" stop-opacity="1" stop-color="rgb(184,183,182)"/>
	</linearGradient>
</defs>
<path transform="translate(0,0)" fill="rgb(6,7,7)" d="M 0 0 L 2048 0 L 2048 1971 L 0 1971 L 0 0 z"/>
<path transform="translate(0,0)" fill="rgb(20,21,23)" d="M 297.631 1506.8 C 240.934 1435.62 188.356 1343.1 159.554 1256.39 C 86.5894 1043.82 101.587 810.902 201.212 609.445 C 309.9 392.632 500.542 228.099 730.918 152.285 C 962.49 76.1112 1214.79 94.6624 1432.73 203.887 C 1614.48 293.91 1761.04 441.947 1849.23 624.592 C 1949.71 836.326 1959.4 1085.76 1870.05 1303.2 C 1857.92 1332.72 1844.44 1359.42 1830.11 1387.89 C 1824.03 1411.44 1777.6 1476 1762.75 1498.04 C 1758.09 1504.96 1745.88 1518.06 1739.98 1525.89 C 1733.52 1534.46 1725.65 1546.7 1718.24 1554.1 C 1707.22 1565.12 1694.95 1576.2 1682.97 1586.21 C 1677.33 1590.92 1665.87 1598.88 1661.49 1603.63 C 1662.53 1603.8 1663.18 1603.97 1664.22 1603.98 L 1664.44 1605.44 C 1635.18 1637.88 1595.62 1664.77 1561.14 1691.81 C 1549.68 1700.8 1533.66 1709.28 1520.98 1717.03 C 1482.59 1740.99 1442.45 1762 1400.89 1779.9 C 1372.51 1792.29 1342.76 1802.26 1313.2 1811.3 C 1246.91 1831.57 1180.25 1847.2 1110.72 1850.73 C 1097.08 1851.42 1043.51 1845.81 1035.47 1853.01 C 1038.63 1854.35 1039.42 1854.51 1042.66 1855.31 C 1033.29 1855.6 1011.02 1856.84 1003 1855.36 L 1002.14 1854.35 L 1005.36 1853.01 C 996.915 1848.45 958.132 1849.13 946.668 1847.92 C 911.378 1844.23 876.392 1840.57 841.603 1833.31 C 836.235 1832.19 828.497 1837.68 822.198 1834.99 C 816.129 1832.39 798.098 1832.8 795.869 1826.75 C 783.987 1834.1 688.512 1796.07 669.465 1788.16 C 654.291 1786.2 625.882 1768.94 610.987 1761.82 C 600.7 1756.91 587.485 1750.95 577.612 1745.46 C 495.097 1700.12 419.864 1642.63 354.437 1574.92 C 346.063 1566.27 336.955 1555 329.025 1545.78 C 319.774 1535.02 301.44 1520.21 297.631 1506.8 z"/>
<path transform="translate(0,0)" fill="rgb(253,122,17)" d="M 297.631 1506.8 C 240.934 1435.62 188.356 1343.1 159.554 1256.39 C 86.5894 1043.82 101.587 810.902 201.212 609.445 C 309.9 392.632 500.542 228.099 730.918 152.285 C 962.49 76.1112 1214.79 94.6624 1432.73 203.887 C 1614.48 293.91 1761.04 441.947 1849.23 624.592 C 1949.71 836.326 1959.4 1085.76 1870.05 1303.2 C 1857.92 1332.72 1844.44 1359.42 1830.11 1387.89 C 1782.46 1358.06 1742.08 1333.55 1692 1307.37 C 1657.01 1289.47 1621.9 1271.81 1586.66 1254.41 C 1573.47 1247.92 1524.31 1226.06 1516.81 1217.78 C 1487.68 1185.57 1460.12 1139.28 1444.48 1098.96 C 1467.91 1091.15 1500.57 1079.49 1522.5 1068.01 C 1595.51 1029.78 1676.22 957.475 1713.14 883.087 C 1745.47 817.952 1790 678.079 1767.95 606.049 C 1747.2 538.251 1641.63 464.094 1582.31 430.238 C 1542.63 407.595 1496.72 384.26 1457.48 358.887 C 1440.74 348.056 1424.63 337.865 1408.24 325.713 C 1386.98 310.07 1365.11 290.168 1341.45 278.487 C 1328.57 272.124 1301.92 263.275 1287.6 265.954 C 1257.46 271.591 1254.08 265.893 1227.46 253.093 C 1213.74 246.638 1199.55 241.221 1185.02 236.889 C 1062.4 201.243 941.439 208.858 819.463 241.769 C 793.609 248.878 766.943 256.459 741.454 264.632 C 715.489 272.958 688.246 268.616 662.833 277.227 C 609.107 295.43 589.947 346.512 556.217 385.886 C 545.278 398.655 527.529 413.104 514.736 424.771 L 454.814 480.105 C 410.926 520.305 359.031 565.503 332.251 619.717 C 308.366 666.281 326.215 718.598 341.361 764.827 C 345.747 777.725 352.785 789.87 357.353 802.645 C 361.205 813.415 361.489 826.138 363.21 837.36 C 370.634 885.758 364.487 927.921 347.072 973.672 C 333.249 1009.99 292.753 1073.87 343.671 1099.98 C 366.058 1111.05 408.087 1105.28 430.553 1095.11 C 459.704 1081.92 479.239 1069.11 495.296 1040.88 C 519.116 1061.58 538.745 1083.47 568.784 1096.05 C 579.674 1100.61 598.518 1104.12 607.398 1108.79 C 621.819 1159.98 596.417 1157.68 573.504 1191.48 C 567.893 1199.76 562.241 1225.85 559.33 1236.24 C 556.128 1247.45 551.676 1258.26 546.057 1268.47 C 533.113 1291.75 519.334 1314.55 504.745 1336.84 C 476.688 1380.13 473.409 1380.38 430.361 1407.68 C 418.558 1415.24 406.88 1422.98 395.33 1430.92 C 364.244 1452.03 325.907 1482.14 297.631 1506.8 z"/>
<path transform="translate(0,0)" fill="rgb(173,11,9)" d="M 718.463 1515.79 C 731.286 1505.35 745.2 1514.2 758.611 1515.59 C 837.848 1523.85 834.3 1597.74 843.993 1659.41 C 849.089 1691.83 855.14 1731.13 858.107 1765.18 C 844.586 1782.77 823.323 1798.59 807.593 1814.52 C 805.439 1816.7 797.333 1824.67 795.869 1826.75 C 783.987 1834.1 688.512 1796.07 669.465 1788.16 C 661.643 1775.48 665.515 1723.05 666.757 1706.16 C 667.307 1698.69 671.247 1680.99 672.555 1672.54 C 679.044 1645.43 702.91 1533.11 718.463 1515.79 z"/>
<path transform="translate(0,0)" fill="rgb(251,39,34)" d="M 718.463 1515.79 C 727.429 1522.06 734.922 1523.91 743.88 1529.85 C 736.38 1554.67 731.102 1575.58 726.247 1601.04 C 723.125 1617.41 719.952 1635.07 715.049 1650.87 C 729.864 1624.58 762.68 1560.83 784.1 1543.85 C 782.295 1556.67 781.723 1569.7 779.837 1582.4 C 770.709 1643.89 764.721 1706.26 746.544 1765.95 C 744.161 1773.78 741.709 1781.63 739.265 1789.46 C 732.016 1777.67 673.582 1680.69 672.786 1674.23 C 672.717 1673.67 672.632 1673.1 672.555 1672.54 C 679.044 1645.43 702.91 1533.11 718.463 1515.79 z"/>
<path transform="translate(0,0)" fill="rgb(66,66,69)" d="M 627.459 372.315 C 631.762 365.713 641.729 356.682 647.586 350.693 C 687.722 309.655 742.935 292.451 796.991 275.938 C 915.043 239.877 1038.39 224.601 1158.47 261.259 C 1174.22 266.067 1198.43 273.311 1212.7 280.928 C 1206.82 280.376 1201.92 280.038 1196.02 279.857 C 1188.31 280.37 1182.05 280.221 1174.29 280.036 C 1223.5 299.681 1265.27 330.887 1301.47 368.964 C 1300.15 353.542 1299.07 340.123 1295.64 324.91 C 1294.04 317.83 1288.89 306.251 1288.07 301.277 C 1282.54 296.415 1276.95 291.373 1271.24 286.752 C 1317.08 301.976 1367.25 324.67 1390.04 370.035 C 1399.37 388.623 1405.29 417.396 1408.96 438.225 C 1413.23 447.733 1425.1 467.377 1430.81 479.001 C 1426.91 456.693 1426.48 436.011 1425.99 413.421 C 1425.78 403.886 1421.06 384.721 1423.76 376.876 C 1421.79 374.069 1420.25 373.061 1420.37 370.376 C 1424.08 371.012 1484.62 407.293 1495.48 414.196 C 1566.71 459.503 1653.84 499.103 1705.79 567.778 C 1723.09 590.657 1729.68 613.559 1733.43 640.239 C 1735.6 647.762 1733.38 673.653 1732.63 682.445 C 1721.82 809.642 1637.74 925.747 1542.29 1005.17 C 1486.15 1051.88 1413.5 1088.5 1346.47 1041.24 C 1318.56 1021.55 1302.82 996.739 1289.54 965.37 C 1266.66 911.456 1260.77 851.845 1272.67 794.497 C 1281.84 748.275 1294.78 710.127 1301.29 662.007 C 1308.72 610.371 1307.37 557.853 1297.32 506.664 C 1287.94 459.06 1265.97 397.042 1233.43 360.431 C 1221.78 347.323 1201.25 332.307 1186.36 322.357 C 1197.35 335.334 1226.64 369.759 1227.04 387.083 C 1224.92 388.282 1208.77 372.888 1206.3 370.602 C 1172.84 339.555 1130.07 321.045 1084.49 313.682 C 1092.36 318.754 1099.69 321.804 1108.32 327.785 C 1130.82 343.384 1145.25 365.383 1161.2 387.216 C 1140.73 379.551 1121.03 377.539 1099.63 371.491 C 1133.12 392.904 1130.68 404.877 1153.81 430.922 L 1155.08 432.335 C 1143 425.866 1121.76 418.325 1107.88 412.276 C 1126.3 430.53 1123.39 434.167 1134.32 457.746 C 1127.28 449.144 1122.22 444.82 1113.4 438.049 C 1066.58 402.124 1034.88 392.005 976.494 399.256 C 983.663 400.247 991.636 400.199 998.789 401.383 C 1014.14 403.924 1034.98 415.773 1046.57 425.975 C 1077.21 452.945 1087.74 478.017 1091.38 517.052 C 1088.77 512.483 1086.72 507.704 1083.94 503.063 C 1069.56 479 1045.9 460.313 1018.67 453.358 C 983.294 444.324 938.061 467.056 908.51 484.605 C 927.936 463.446 929.939 460.595 953.243 444.204 C 947.449 446.196 901.868 463.008 901.437 462.997 C 900.104 458.078 901.064 457.627 896.9 455.338 C 891.619 460.741 885.405 467.467 880.008 472.564 C 880.235 479.174 878.348 488.86 877.263 495.674 C 857.717 479.773 854.006 461.021 846.932 437.51 C 830.507 469.078 811.337 494.696 813.424 531.373 C 804.003 514.348 799.49 501.864 796.995 482.516 C 790.633 513.599 790.779 550.004 804.266 579.32 C 808.298 588.085 814.473 597.145 819.831 605.264 L 824.202 611.853 C 797.619 606.986 782.763 605.527 755.932 603.754 C 768.572 612.276 778.387 622.355 790.211 630.484 C 779.203 628.827 764.136 625.693 754.273 632.081 C 751.586 633.822 747.331 638.932 744.553 641.469 L 745.66 642.315 C 732.311 646.044 716.967 649.06 703.968 653.123 C 721.163 656.36 727.379 657.754 743.912 664.66 C 723.834 673.56 689.915 672.305 680.142 680.924 L 680.754 682.118 L 682.804 682.705 C 677.242 684.323 669.324 688.83 665.025 692.706 L 664.984 693.984 L 665.851 694.713 C 660.854 697.076 635.889 707.092 635.086 711.188 C 629.02 712.6 625.133 712.4 618.967 712.381 L 620.254 713.567 L 619.622 714.789 C 627.007 720.986 629.153 725.966 632.867 734.698 C 618.348 727.474 603.801 720.695 587.474 718.727 C 535.968 711.825 489.64 714.427 450.993 751.974 L 451.408 752.957 L 461.638 752.943 C 455.885 754.448 454.629 753.66 451.688 758.858 C 449.099 763.435 447.064 769.169 447.856 774.503 C 449.618 776.301 448.91 775.9 451.182 776.604 C 427.257 781.598 404.498 796.048 406.049 823.759 C 406.5 831.832 409.425 836.288 412.58 843.56 C 411.14 842.139 409.737 840.681 408.373 839.187 C 400.303 830.269 395.12 813.508 396.511 801.437 C 401.216 760.606 454.241 727.342 483.004 702.993 C 515.047 675.867 545.007 651.757 575.559 623.736 C 602.959 598.606 629.707 573.283 657.369 549.184 C 655.627 545.478 655.107 544.934 655.097 540.985 C 656.636 536.249 661.364 526.374 663.554 521.184 C 670.415 504.925 674.805 487 674.916 469.292 C 673.005 466.427 673.831 467.35 669.36 466.373 L 668.995 465.197 L 671.416 464.877 C 671.344 461.314 671.147 459.796 672.009 456.27 L 673.173 456.665 L 674.115 460.388 C 675.122 457.593 674.57 447.174 674.505 443.514 C 671.908 451.306 670.46 462.323 664.468 466.287 C 656.969 481.686 652.426 489.934 642.475 504.003 C 629.814 484.845 628.019 475.236 617.919 457.636 L 614.528 458.052 C 597.511 448.108 585.609 449.142 567.038 452.346 C 573.156 439.074 586.478 411.431 602.552 408.93 C 607.121 402.857 608.612 400.832 614.926 396.515 C 613.412 395.477 612.041 394.638 610.472 393.686 C 611.576 390.315 624.408 375.262 627.459 372.315 z"/>
<path transform="translate(0,0)" fill="rgb(20,21,23)" d="M 1469.28 426.061 C 1497.58 449.97 1521.91 469.7 1553.99 488.802 C 1554.12 490.798 1554.21 493.931 1555.61 495.366 C 1571.62 511.696 1586.53 526.183 1600.4 544.61 C 1625.15 577.502 1635.51 613.35 1652.36 649.842 C 1660.6 608.21 1655.47 592.33 1649.67 554.094 L 1651.07 553.426 C 1652.44 554.604 1663.45 577.722 1664.88 581.224 C 1689 640.361 1697.17 714.515 1671.85 774.482 C 1665.41 761.401 1659.25 748.269 1652.52 735.332 C 1652.61 739.055 1652.44 742.781 1652.01 746.48 C 1643.84 813.097 1591.57 898.01 1538.93 939.799 C 1530.58 946.473 1521.69 952.436 1512.35 957.623 C 1503.36 962.605 1490.89 968.66 1483.21 974.671 L 1482.1 975.548 C 1497.65 982.333 1511.29 985.317 1528.18 984.979 C 1498.67 1006.19 1486.72 1016.24 1448.94 1020.3 C 1416.05 1023.84 1384.29 1016.82 1357.97 995.762 C 1336.55 978.614 1327.88 958.528 1317.38 934.678 C 1272.04 831.756 1325.4 748.874 1335.14 646.159 C 1338.54 610.297 1336.03 568.511 1333.45 532.302 C 1332.57 520.048 1328.64 504.1 1327.36 490.088 C 1332.82 502.613 1336.1 517.897 1340.96 531.004 C 1361.18 585.559 1379.98 640.243 1391.86 697.326 C 1394.74 711.175 1397.71 725.909 1402.01 739.38 C 1408.05 709.747 1414.51 679.782 1416.44 649.591 C 1417.35 635.448 1418.22 621.271 1419.85 607.194 C 1429.56 631.826 1441.35 664.423 1452.55 687.801 C 1457.56 654.462 1455.19 624.181 1450.02 591.262 C 1462.59 615.187 1465.05 621.086 1484.41 641.995 C 1482.38 606.857 1478.73 576.768 1474.35 541.919 C 1494.71 569.86 1515.28 599.749 1536.26 626.883 C 1528.08 590.85 1491.4 518.902 1471.85 486.55 C 1495.61 508.546 1521.14 526.781 1544.95 547.946 C 1532.51 524.925 1515.42 499.667 1500.84 477.673 C 1491.06 462.914 1479.18 448.475 1470.2 432.945 C 1467.92 429.006 1468.29 429.387 1469.28 426.061 z"/>
<path transform="translate(0,0)" fill="rgb(152,151,151)" d="M 627.459 372.315 C 631.762 365.713 641.729 356.682 647.586 350.693 C 687.722 309.655 742.935 292.451 796.991 275.938 C 915.043 239.877 1038.39 224.601 1158.47 261.259 C 1174.22 266.067 1198.43 273.311 1212.7 280.928 C 1206.82 280.376 1201.92 280.038 1196.02 279.857 C 1161.03 277.99 1125.1 267.102 1089.06 261.556 C 1010.23 249.425 941.447 268.079 870.361 301.793 C 853.542 309.77 837.695 320.684 821.528 329.493 C 834.743 311.393 850.63 295.883 866.409 280.068 C 794.22 295.962 718.162 319.202 655.058 357.447 C 650.75 360.058 630.157 372.558 627.459 372.315 z"/>
<path transform="translate(0,0)" fill="url(#Gradient5)" d="M 670.837 539.324 C 679.53 533.237 690.538 525.074 699.531 519.888 C 681.905 540.953 665.572 564.493 647.964 585.997 C 621.217 618.662 593.419 649.163 559.811 675.054 C 547.593 684.669 535.774 695.777 522.593 704.026 C 554.089 699.185 590.023 703.301 619.622 714.789 C 627.007 720.986 629.153 725.966 632.867 734.698 C 618.348 727.474 603.801 720.695 587.474 718.727 C 535.968 711.825 489.64 714.427 450.993 751.974 L 451.408 752.957 L 461.638 752.943 C 455.885 754.448 454.629 753.66 451.688 758.858 C 449.099 763.435 447.064 769.169 447.856 774.503 C 449.618 776.301 448.91 775.9 451.182 776.604 C 427.257 781.598 404.498 796.048 406.049 823.759 C 406.5 831.832 409.425 836.288 412.58 843.56 C 411.14 842.139 409.737 840.681 408.373 839.187 C 400.303 830.269 395.12 813.508 396.511 801.437 C 401.216 760.606 454.241 727.342 483.004 702.993 C 515.047 675.867 545.007 651.757 575.559 623.736 C 602.959 598.606 629.707 573.283 657.369 549.184 L 670.837 539.324 z"/>
<path transform="translate(0,0)" fill="rgb(152,151,151)" d="M 1423.76 376.876 C 1421.79 374.069 1420.25 373.061 1420.37 370.376 C 1424.08 371.012 1484.62 407.293 1495.48 414.196 C 1566.71 459.503 1653.84 499.103 1705.79 567.778 C 1723.09 590.657 1729.68 613.559 1733.43 640.239 L 1732.49 641.912 C 1730.83 640.512 1731.23 641.184 1730.43 639.355 C 1699.31 568.741 1617.48 525.013 1553.99 488.802 C 1521.91 469.7 1497.58 449.97 1469.28 426.061 C 1467.1 422.926 1449.7 407.166 1445.48 402.903 C 1435.98 393.302 1431.74 387.61 1423.76 376.876 z"/>
<path transform="translate(0,0)" fill="rgb(253,122,17)" d="M 880.008 472.564 C 872.411 469.009 866.832 464.827 863.246 457.086 C 839.127 405.03 885.562 363.472 935.389 359.951 C 942.572 359.443 952.882 357.531 959.613 359.843 C 966.377 363.349 961.608 364.077 968.066 366.405 C 974.945 368.885 981.093 368.069 986.88 373.395 L 990.886 374.366 C 989.9 377.294 968.107 387.449 963.23 391.612 C 943.344 408.589 913.663 436.219 896.9 455.338 C 891.619 460.741 885.405 467.467 880.008 472.564 z"/>
<path transform="translate(0,0)" fill="rgb(66,49,49)" d="M 940.058 371.495 L 940.766 370.973 L 941.961 370.122 C 948.482 365.414 952.321 363.566 959.613 359.843 C 966.377 363.349 961.608 364.077 968.066 366.405 C 974.945 368.885 981.093 368.069 986.88 373.395 C 964.923 370.104 962.277 369.58 940.058 371.495 z"/>
<path transform="translate(0,0)" fill="rgb(253,122,17)" d="M 614.926 396.515 C 625.863 392.127 648.173 387.832 659.645 392.07 C 664.139 393.731 668.058 399.682 669.231 404.259 C 675.449 428.537 673.221 444.052 664.468 466.287 C 656.969 481.686 652.426 489.934 642.475 504.003 C 629.814 484.845 628.019 475.236 617.919 457.636 L 614.528 458.052 C 597.511 448.108 585.609 449.142 567.038 452.346 C 573.156 439.074 586.478 411.431 602.552 408.93 C 607.121 402.857 608.612 400.832 614.926 396.515 z"/>
<path transform="translate(0,0)" fill="rgb(66,66,69)" d="M 567.038 452.346 C 573.156 439.074 586.478 411.431 602.552 408.93 C 597.897 432.924 607.29 437.811 617.919 457.636 L 614.528 458.052 C 597.511 448.108 585.609 449.142 567.038 452.346 z"/>
<path transform="translate(0,0)" fill="rgb(152,151,151)" d="M 1271.24 286.752 C 1317.08 301.976 1367.25 324.67 1390.04 370.035 C 1399.37 388.623 1405.29 417.396 1408.96 438.225 C 1409.05 441.507 1409.1 441.761 1408.45 445.141 C 1403.51 443.811 1389.84 411.893 1386.84 405.649 C 1370.86 372.434 1349.02 341.632 1318.68 320.065 C 1309.58 313.597 1297.81 307.012 1288.07 301.277 C 1282.54 296.415 1276.95 291.373 1271.24 286.752 z"/>
<path transform="translate(0,0)" fill="rgb(47,46,49)" d="M 655.097 540.985 C 661.776 545.072 660.276 538.081 668.978 536.916 L 670.837 539.324 L 657.369 549.184 C 655.627 545.478 655.107 544.934 655.097 540.985 z"/>
<path transform="translate(0,0)" fill="rgb(20,21,23)" d="M 799.636 334.918 L 800.365 335.546 C 800.041 339.78 783.399 365.807 780.359 372.189 C 762.317 410.071 753.186 450.465 745.785 491.532 C 744.64 497.881 743.536 504.821 741.469 510.913 C 739.042 489.589 737.686 441.384 740.67 420.712 C 746.277 381.86 768.971 357.148 799.636 334.918 z"/>
<path transform="translate(0,0)" fill="rgb(253,122,17)" d="M 745.66 642.315 C 779.91 638.732 805.043 654.385 832.957 673.858 C 833.534 674.26 835.065 675.677 835.476 676.195 C 844.363 682.178 861.446 697.277 867.444 706.124 L 869.43 706.276 C 869.77 703.06 855.268 672.911 852.838 666.815 C 908.777 717.152 939.946 746.898 1022.7 743.291 C 1035.93 742.715 1049.17 740.505 1061.55 736.636 C 1083.85 729.67 1107.13 711.263 1128.35 731.902 C 1159.11 761.832 1165.84 799.477 1167.95 839.613 L 1168.23 845.356 C 1162.1 836.197 1156.34 823.214 1150.6 815.797 C 1145.6 806.175 1126.67 792.073 1118.07 784.569 C 1122.91 817.738 1130.11 853.06 1119.05 885.282 C 1101.96 854.897 1084.93 826.175 1049.59 815.425 C 1014.1 804.631 979.04 835.295 950.718 849.463 C 959.54 847.395 1010.5 836.125 1012.98 843.661 C 997.21 847.894 986.02 864.311 973.953 874.765 C 950.895 894.742 922.938 913.211 896.009 927.486 C 882.081 936.683 869.206 942.123 854.011 948.822 C 829.534 961.753 790.555 975.39 762.756 978.401 C 743.684 984.209 700.053 984.65 679.473 983.773 C 637.84 981.998 579.885 971.287 550.737 939.167 C 584.005 929.818 612.503 927.248 636.377 898.712 C 643.831 887.127 645.504 880.409 651.715 869.026 C 653.351 866.029 661.762 857.522 664.753 854.352 C 673.396 845.193 676.866 839.226 682.299 827.972 C 696.531 787.234 674.728 730.421 635.086 711.188 C 635.889 707.092 660.854 697.076 665.851 694.713 L 664.984 693.984 L 665.025 692.706 C 669.324 688.83 677.242 684.323 682.804 682.705 L 680.754 682.118 L 680.142 680.924 C 689.915 672.305 723.834 673.56 743.912 664.66 C 727.379 657.754 721.163 656.36 703.968 653.123 C 716.967 649.06 732.311 646.044 745.66 642.315 z"/>
<path transform="translate(0,0)" fill="rgb(188,88,15)" d="M 636.377 898.712 C 643.831 887.127 645.504 880.409 651.715 869.026 C 653.351 866.029 661.762 857.522 664.753 854.352 C 673.396 845.193 676.866 839.226 682.299 827.972 C 690.841 830.434 695.003 829.344 704.582 833.684 C 719.52 840.454 725.844 845.708 732.837 860.744 C 726.35 865.977 719.907 871.264 713.508 876.604 C 720.297 886.524 728.056 894.078 735.017 903.029 C 751.327 924.004 764.703 940.387 792.419 945.69 C 809.639 948.985 832.89 947.208 849.728 941.805 C 851.007 944.482 851.825 946.883 854.011 948.822 C 829.534 961.753 790.555 975.39 762.756 978.401 C 743.684 984.209 700.053 984.65 679.473 983.773 C 637.84 981.998 579.885 971.287 550.737 939.167 C 584.005 929.818 612.503 927.248 636.377 898.712 z"/>
<path transform="translate(0,0)" fill="rgb(142,57,7)" d="M 636.377 898.712 C 644.445 904.768 652.744 913.86 659.94 920.694 C 688.84 948.135 724.389 960.143 761.064 972.884 C 761.707 973.107 761.982 977.125 761.993 977.877 L 762.756 978.401 C 743.684 984.209 700.053 984.65 679.473 983.773 C 637.84 981.998 579.885 971.287 550.737 939.167 C 584.005 929.818 612.503 927.248 636.377 898.712 z"/>
<path transform="translate(0,0)" fill="rgb(188,88,15)" d="M 849.728 941.805 C 847.165 936.563 835.572 933.247 833.326 926.43 L 834.159 924.911 C 839.114 924.284 892.235 926.215 896.009 927.486 C 882.081 936.683 869.206 942.123 854.011 948.822 C 851.825 946.883 851.007 944.482 849.728 941.805 z"/>
<path transform="translate(0,0)" fill="rgb(47,46,49)" d="M 682.804 682.705 C 693.868 681.167 701.656 681.855 712.656 684.12 C 697.054 688.512 682.935 689.218 665.851 694.713 L 664.984 693.984 L 665.025 692.706 C 669.324 688.83 677.242 684.323 682.804 682.705 z"/>
<path transform="translate(0,0)" fill="rgb(235,149,49)" d="M 835.476 676.195 C 844.363 682.178 861.446 697.277 867.444 706.124 C 859.401 704.669 852.534 695.493 847.097 689.932 C 842.674 685.409 836.395 682.511 835.476 676.195 z"/>
<path transform="translate(0,0)" fill="rgb(6,7,7)" d="M 861.627 842.999 C 868.291 842.395 878.445 845.541 881.477 851.666 C 878.885 853.981 878.663 853.217 874.248 853.573 C 868.3 853.895 856.574 855.474 852.034 851.695 L 852.21 849.625 C 855.191 845.886 857.415 845.17 861.627 842.999 z"/>
<path transform="translate(0,0)" fill="rgb(31,0,1)" d="M 768.561 890.234 C 776.424 889.542 789.853 888.495 793.204 897.493 L 791.791 900.168 C 782.998 900.986 768.521 902.332 768.561 890.234 z"/>
<path transform="translate(0,0)" fill="rgb(6,7,7)" d="M 794.644 828.043 C 799.461 828.452 808.377 829.697 805.95 836.486 C 802.82 838.886 801.883 838.632 797.74 838.996 C 790.76 837.768 788.161 836.844 781.454 834.447 C 786.937 831.146 788.799 830.341 794.644 828.043 z"/>
<path transform="translate(0,0)" fill="rgb(6,7,7)" d="M 855.834 885.421 C 867.414 885.23 870.925 885.325 880.461 892.306 L 879.611 893.414 L 864.345 896.817 C 860.333 893.009 856.751 890.47 855.834 885.421 z"/>
<path transform="translate(0,0)" fill="rgb(6,7,7)" d="M 807.418 870.167 C 813.457 870.363 822.502 871.821 824.504 878.427 C 822.268 881.128 823.642 879.989 819.715 881.245 C 814.197 879.992 806.036 878.99 802.662 874.944 C 803.719 871.889 804.083 872.481 807.418 870.167 z"/>
<path transform="translate(0,0)" fill="rgb(6,7,7)" d="M 744.576 854.075 C 749.686 853.551 763.246 852.518 765.251 858.174 L 762.843 860.725 C 756.93 863.274 750.51 864.785 745.079 860.458 C 743.398 856.453 743.634 858.499 744.576 854.075 z"/>
<path transform="translate(0,0)" fill="rgb(6,7,7)" d="M 837.93 815.348 C 847.901 814.516 861.429 814.602 864.602 826.205 C 858.298 825.776 839.841 821.835 837.93 815.348 z"/>
<path transform="translate(0,0)" fill="rgb(31,0,1)" d="M 813.078 910.14 C 820.62 909.47 830.019 910.755 836.416 914.991 L 836.746 917.138 C 825.882 920.533 821.76 916.602 813.078 910.14 z"/>
<path transform="translate(0,0)" fill="rgb(254,253,245)" d="M 1317.39 1079.01 C 1331.28 1087.19 1352.76 1101.47 1364.27 1112.32 C 1340.83 1145.95 1316.94 1179.27 1292.59 1212.25 C 1288.32 1218.02 1268.58 1245.17 1264.02 1249.33 C 1201.28 1330.5 1133.15 1409.01 1056.75 1477.8 C 1036.88 1495.69 1015.74 1511.59 994.457 1527.75 C 985.755 1514.66 974.785 1491.47 967.558 1477.15 C 936.629 1415.85 907.153 1356.26 844.254 1321.93 C 878.29 1310.03 911.894 1296.92 945.004 1282.64 C 1058.68 1234.73 1145.09 1187.87 1250.75 1124.15 C 1264.73 1113.03 1301.45 1089.21 1317.39 1079.01 z"/>
<path transform="translate(0,0)" fill="rgb(207,207,208)" d="M 1317.39 1079.01 C 1331.28 1087.19 1352.76 1101.47 1364.27 1112.32 C 1340.83 1145.95 1316.94 1179.27 1292.59 1212.25 C 1288.32 1218.02 1268.58 1245.17 1264.02 1249.33 C 1263.56 1248.87 1263.06 1248.34 1262.51 1247.99 C 1248.37 1238.89 1201.02 1299.47 1184.56 1303.9 L 1183.92 1302.56 C 1206.14 1280.18 1244.78 1189.57 1249.77 1155.88 C 1250.59 1150.32 1253.88 1128.5 1250.75 1124.15 C 1264.73 1113.03 1301.45 1089.21 1317.39 1079.01 z"/>
<path transform="translate(0,0)" fill="rgb(66,66,69)" d="M 1402.59 1137.61 C 1413.87 1139.96 1457.11 1193.23 1465.81 1205.05 C 1470.82 1211.85 1473.41 1221.62 1473.88 1230.4 C 1476.04 1270.82 1465 1311.99 1457.48 1351.59 C 1453.41 1373.02 1449.54 1394.76 1445.22 1415.85 C 1417.78 1416.93 1388.22 1425.91 1357.54 1426.41 C 1379.12 1415.49 1400.62 1404.42 1422.05 1393.2 C 1428.22 1354.13 1428.43 1304.6 1427.8 1265.03 C 1402.31 1283.68 1376.27 1325.28 1349.52 1339.53 C 1355.26 1329.16 1361.32 1311.47 1366.05 1300.19 C 1373.47 1282.47 1381.58 1265.01 1388.96 1247.32 C 1394.79 1233.34 1398.92 1219.41 1405.33 1205.33 C 1394.47 1217.96 1377.08 1233.16 1364.57 1247.02 C 1324.43 1291.52 1286.84 1331.57 1251.24 1379.92 C 1256.77 1383.26 1262.89 1387.43 1268.22 1391.16 C 1315.73 1424.4 1364.13 1456.09 1413.64 1486.33 C 1398.07 1507.29 1375.65 1531.74 1358.53 1552.09 C 1300.1 1621.56 1233.34 1690.88 1162.65 1748 C 1187.25 1715.33 1209.4 1688.13 1235.18 1656.46 C 1262.09 1622.2 1289.73 1588.51 1318.06 1555.42 C 1328.9 1542.64 1362.62 1506.89 1366.7 1493.14 C 1362.9 1486.66 1246.52 1412.12 1234.28 1405.7 C 1187.56 1469.68 1150.18 1543.51 1108.59 1610.85 C 1066.55 1678.91 1020.15 1754.66 968.562 1815.58 C 976.265 1786.7 1006.89 1732.13 1021.8 1703.25 C 1083.98 1580.04 1156.58 1462.36 1238.81 1351.51 C 1283.82 1291.63 1337.11 1238.76 1377.01 1175.03 C 1383.97 1163.91 1393.88 1147 1402.59 1137.61 z"/>
<path transform="translate(0,0)" fill="rgb(188,88,15)" d="M 1118.07 784.569 C 1126.67 792.073 1145.6 806.175 1150.6 815.797 C 1150.81 856.463 1139.79 895.834 1110.49 925.346 C 1068.75 967.396 939.742 1025.81 881.407 1042.5 C 900.87 1029.52 918.638 1014.54 938.725 1002.51 C 942.432 1000.29 946.389 997.806 949.858 995.263 C 936.393 999.703 923.001 1002.38 909.294 1006.28 C 863.957 1019.18 823.654 1041.61 779.198 1057.35 C 715.771 1079.71 636.273 1092.09 573.359 1062.36 C 556.992 1054.62 536.661 1038.61 529.071 1021.82 C 525.343 1013.57 538.444 1005.54 544.684 1003.05 C 564.472 1001.78 586.307 1006.88 606.096 1009.16 C 646.623 1013.85 688.738 1018.35 729.566 1017.01 C 740.78 1016.64 787.925 1011.88 794.671 1016.1 C 799.865 1013.42 841.958 1001.19 851.892 997.593 C 904.294 978.623 958.468 950.681 999.725 912.812 C 1008.98 904.32 1020.66 885.924 1026.45 875.086 C 1036.61 887.285 1039.2 897.352 1044.23 912.114 C 1046.01 889.457 1049.95 860.689 1026.74 847.484 C 1023.31 845.535 1016.94 844.46 1012.98 843.661 C 1010.5 836.125 959.54 847.395 950.718 849.463 C 979.04 835.295 1014.1 804.631 1049.59 815.425 C 1084.93 826.175 1101.96 854.897 1119.05 885.282 C 1130.11 853.06 1122.91 817.738 1118.07 784.569 z"/>
<path transform="translate(0,0)" fill="rgb(142,57,7)" d="M 544.684 1003.05 C 564.472 1001.78 586.307 1006.88 606.096 1009.16 C 646.623 1013.85 688.738 1018.35 729.566 1017.01 C 740.78 1016.64 787.925 1011.88 794.671 1016.1 C 774.639 1025.49 741.301 1036.65 717.752 1042.2 C 677.007 1051.79 605.734 1060.11 569.706 1034.2 C 562.142 1028.27 555.879 1020.57 551.023 1012.34 C 548.123 1007.42 549.722 1006.07 544.684 1003.05 z"/>
<path transform="translate(0,0)" fill="rgb(253,122,17)" d="M 1175.62 963.918 C 1180.16 960.261 1184.39 956.69 1189.32 953.569 C 1187.45 956.532 1179.92 968.902 1177.81 970.133 C 1164.39 993.585 1118.14 1028.23 1094.73 1042.16 C 1128.28 1033.66 1151.32 1023.9 1182.28 1008.83 C 1158.96 1047.08 1102.3 1098.54 1064.93 1122.88 C 1072.59 1121.2 1076.18 1118.35 1080 1117.41 C 1088.71 1112.07 1107.08 1101.08 1115.88 1097.26 C 1105.42 1106.78 1094.37 1116.12 1084.14 1125.71 C 1074.23 1136.45 1059.42 1146.72 1048.55 1156.67 C 1011.45 1190.64 961.833 1234.24 915.161 1254.78 C 896.403 1265.9 863.07 1277.49 841.602 1280.08 C 851.494 1266.71 863.358 1259.07 871.15 1243.43 C 856.271 1246.07 843.056 1250.22 828.557 1254.44 C 848.838 1235.55 876.647 1218.11 893.693 1201.4 C 874.932 1206.66 860.243 1212.14 840.841 1216.25 C 847.664 1209.99 857.973 1200.51 865.039 1195.38 C 873.557 1189.19 923.504 1154.51 925.566 1148.5 C 916.012 1152.88 907.542 1157.05 897.412 1159.89 C 887.864 1163.33 869.477 1170.81 860.686 1172.76 C 864.957 1169.53 868.457 1166.48 873.376 1164.39 C 877.448 1161.39 881.63 1158.07 885.781 1155.23 C 926.121 1127.65 963.924 1096.48 1004.66 1069.53 C 1043.1 1044.24 1082.06 1019.72 1121.49 996.003 C 1139.15 985.329 1158.46 974.694 1175.62 963.918 z"/>
<path transform="translate(0,0)" fill="rgb(188,88,15)" d="M 925.566 1148.5 C 928.048 1146.12 945.766 1143.69 955.257 1138.92 C 938.752 1171.76 915.292 1215.96 914.333 1253.15 L 915.161 1254.78 C 896.403 1265.9 863.07 1277.49 841.602 1280.08 C 851.494 1266.71 863.358 1259.07 871.15 1243.43 C 856.271 1246.07 843.056 1250.22 828.557 1254.44 C 848.838 1235.55 876.647 1218.11 893.693 1201.4 C 874.932 1206.66 860.243 1212.14 840.841 1216.25 C 847.664 1209.99 857.973 1200.51 865.039 1195.38 C 873.557 1189.19 923.504 1154.51 925.566 1148.5 z"/>
<path transform="translate(0,0)" fill="rgb(235,149,49)" d="M 1080 1117.41 C 1088.71 1112.07 1107.08 1101.08 1115.88 1097.26 C 1105.42 1106.78 1094.37 1116.12 1084.14 1125.71 C 1085.91 1117.04 1087.24 1122.44 1091.4 1114.97 L 1090.17 1114.05 C 1087.6 1115.52 1084.99 1116.92 1082.34 1118.26 L 1080 1117.41 z"/>
<path transform="translate(0,0)" fill="rgb(188,88,15)" d="M 873.376 1164.39 C 878.769 1168.13 886.499 1157.05 897.412 1159.89 C 887.864 1163.33 869.477 1170.81 860.686 1172.76 C 864.957 1169.53 868.457 1166.48 873.376 1164.39 z"/>
<path transform="translate(0,0)" fill="rgb(235,149,49)" d="M 1175.62 963.918 C 1180.16 960.261 1184.39 956.69 1189.32 953.569 C 1187.45 956.532 1179.92 968.902 1177.81 970.133 L 1176.22 968.888 L 1178.21 966.431 L 1177.83 964.92 L 1175.62 963.918 z"/>
<path transform="translate(0,0)" fill="url(#Gradient4)" d="M 709.517 1479.02 C 687.552 1427.99 686.21 1399.16 730.906 1359.62 C 751.168 1341.7 776.646 1334.07 803.566 1336.32 C 837.023 1342.96 859.258 1358 882.203 1382.73 C 888.21 1389.21 894.908 1396.01 899.671 1403.43 C 902.613 1408.01 905.533 1413.39 904.224 1419.01 C 900.808 1433.67 854.05 1491.56 841.765 1504.34 C 822.752 1499.79 803.627 1494.9 784.657 1490.11 C 779.165 1488.72 757.861 1484.95 754.232 1483.61 C 734.529 1479.75 729.562 1478.29 709.517 1479.02 z"/>
<path transform="translate(0,0)" fill="rgb(251,39,34)" d="M 709.517 1479.02 C 687.552 1427.99 686.21 1399.16 730.906 1359.62 C 751.168 1341.7 776.646 1334.07 803.566 1336.32 C 802.587 1340.07 783.093 1354.69 779.58 1360.64 C 761.616 1391.04 761.536 1427.91 757.086 1462.01 C 756.375 1467.46 757.547 1480.5 754.232 1483.61 C 734.529 1479.75 729.562 1478.29 709.517 1479.02 z"/>
<path transform="translate(0,0)" fill="url(#Gradient3)" d="M 1113.68 1460.85 L 1114.66 1462.36 C 1103.44 1476.64 1093.31 1492.04 1082.34 1506.63 C 1058.81 1537.76 1034.7 1568.44 1010.01 1598.67 C 974.191 1642.42 935.23 1683.22 897.706 1725.38 C 889.905 1696.16 884.495 1653.29 877.984 1621.77 C 872.231 1587.31 866.761 1566.17 857.027 1533.21 C 858.858 1529.67 861.23 1525.9 863.23 1523.11 C 915.207 1450.61 922.31 1464.74 962.436 1534.26 C 966.767 1541.76 977.283 1553.9 985.482 1559.53 L 986.629 1560.31 C 1006 1555.49 1036.01 1526.34 1052.26 1512.5 C 1072.5 1495.25 1093.32 1477.99 1113.68 1460.85 z"/>
<path transform="translate(0,0)" fill="rgb(254,253,245)" d="M 624.8 1187 C 647.077 1229.33 678.371 1266.25 716.474 1295.15 C 728.653 1304.46 743.832 1314.1 756.748 1322.7 C 753.536 1323.77 750.345 1324.9 747.175 1326.09 C 699.066 1344.06 678.55 1387.88 658.486 1432.1 C 651.241 1450.05 643.168 1467.98 637.836 1486.55 C 635.382 1493 633.034 1500.55 630.8 1507.17 C 605.858 1461.99 592.929 1408.51 592.25 1356.85 C 591.491 1299.12 587.583 1235.17 624.8 1187 z"/>
<path transform="translate(0,0)" fill="rgb(207,207,208)" d="M 615.078 1332.58 C 621.554 1347.04 626.98 1363.52 633.33 1378.39 C 639.292 1393.34 650.175 1407.07 653.427 1422.96 C 654.457 1427.99 653.882 1429.08 658.486 1432.1 C 651.241 1450.05 643.168 1467.98 637.836 1486.55 C 636.852 1485.44 633.994 1482.2 633.707 1480.89 C 627.433 1452.41 620.836 1423.82 619.06 1394.62 C 618.631 1387.55 618.08 1380.47 617.576 1373.43 C 616.599 1359.77 614.67 1346.32 615.078 1332.58 z"/>
<path transform="translate(0,0)" fill="rgb(66,66,69)" d="M 477.767 1470.27 C 492.056 1427.85 515.94 1383.44 537.829 1344.66 C 541.794 1337.63 553.8 1316.24 558.588 1310.58 L 559.387 1311.34 L 559.008 1316.92 C 556.652 1422.52 555.966 1526.78 565.34 1632.21 C 566.483 1645.07 567.544 1658.55 568.3 1671.43 C 548.207 1622.26 536.962 1554.98 529.521 1502.23 C 515.957 1515.79 503.926 1528.43 488.647 1540.19 L 498.441 1612.41 C 500.936 1630.48 504.637 1651.09 505.1 1669.17 C 485.193 1623.13 467.881 1565.23 462.056 1515.44 C 474.595 1507.73 526.697 1471.11 518.742 1454.38 C 512.474 1460.45 488.292 1466.69 477.767 1470.27 z"/>
<path transform="translate(0,0)" fill="rgb(152,151,151)" d="M 477.767 1470.27 C 492.056 1427.85 515.94 1383.44 537.829 1344.66 C 541.794 1337.63 553.8 1316.24 558.588 1310.58 L 559.387 1311.34 L 559.008 1316.92 C 555.739 1336.42 518.29 1450.95 518.742 1454.38 C 512.474 1460.45 488.292 1466.69 477.767 1470.27 z"/>
<path transform="translate(0,0)" fill="rgb(152,151,151)" d="M 526.79 454.973 C 529.519 451.786 533.47 449.144 536.883 446.587 C 529.09 460.17 528.879 470.503 524.156 484.833 C 520.484 495.978 513.438 507.907 510.095 519.129 C 494.8 570.467 475.445 619.88 457.549 670.256 C 455.793 675.198 454.63 679.354 452.187 684.093 C 448.204 654.284 453.14 630.962 456.963 601.537 C 460.031 577.928 457.916 564.553 471.669 544.229 L 471.182 541.532 L 469.7 541.185 C 465.573 545.408 459.005 557.059 455.584 562.49 C 446.546 576.841 437.304 591.125 428.208 605.448 C 422.011 615.205 415.664 629.457 407.91 637.707 C 402.814 635.522 406.092 632.278 402.172 632.952 C 399.119 638.04 399.441 641.106 396.712 646.934 C 392.453 656.03 383.587 669.439 380.357 678.256 C 375.166 692.43 373.039 710.267 368.765 725.183 C 363.074 704.526 360.596 679.127 360.258 657.442 C 360.21 654.39 364.857 644.867 363.382 642.231 L 359.227 642.889 C 358.863 640.787 358.701 641.768 359.645 639.935 C 373.674 586.507 482.867 491.898 526.79 454.973 z"/>
<path transform="translate(0,0)" fill="rgb(66,66,69)" d="M 379.056 664.65 C 401.55 596.389 413.063 584.605 464.232 535.868 C 471.716 528.739 479.22 516.984 487.462 509.207 C 481.93 521.166 479.181 526.492 476.731 539.225 L 471.669 544.229 L 471.182 541.532 L 469.7 541.185 C 465.573 545.408 459.005 557.059 455.584 562.49 C 446.546 576.841 437.304 591.125 428.208 605.448 C 422.011 615.205 415.664 629.457 407.91 637.707 C 402.814 635.522 406.092 632.278 402.172 632.952 C 399.119 638.04 399.441 641.106 396.712 646.934 C 392.453 656.03 383.587 669.439 380.357 678.256 C 375.166 692.43 373.039 710.267 368.765 725.183 C 363.074 704.526 360.596 679.127 360.258 657.442 C 360.21 654.39 364.857 644.867 363.382 642.231 L 359.227 642.889 C 358.863 640.787 358.701 641.768 359.645 639.935 L 360.76 640.331 C 363.288 639.042 381.254 617.489 384.782 613.612 C 377.851 637.158 377.691 640.129 379.056 664.65 z"/>
<path transform="translate(0,0)" fill="rgb(66,66,69)" d="M 526.79 454.973 C 529.519 451.786 533.47 449.144 536.883 446.587 C 529.09 460.17 528.879 470.503 524.156 484.833 C 520.484 495.978 513.438 507.907 510.095 519.129 C 494.8 570.467 475.445 619.88 457.549 670.256 C 455.793 675.198 454.63 679.354 452.187 684.093 C 448.204 654.284 453.14 630.962 456.963 601.537 C 460.031 577.928 457.916 564.553 471.669 544.229 L 476.731 539.225 C 477.803 549.887 477.619 557.571 477.442 568.203 C 486.86 544.323 496.545 520.55 506.498 496.888 C 513.725 479.9 516.373 472.311 527.4 457.362 L 526.79 454.973 z"/>
<path transform="translate(0,0)" fill="rgb(66,66,69)" d="M 1062.67 551.988 C 1073.38 539.322 1080.53 539.647 1095.69 540.24 C 1089.26 562.269 1084.91 562.317 1072.89 578.478 C 1051.66 607.028 1039.26 616.284 1008.05 633.444 C 1005.01 635.127 1001.94 636.776 998.863 638.393 C 1004.47 641.507 1015.63 647.894 1018.42 653.551 L 1018.14 655.391 C 1011.26 660.002 981.794 655.602 973.204 653.944 C 958.03 651.016 942.874 644.791 927.769 641.295 C 932.556 656.429 938.449 670.626 944.623 685.228 C 936.842 680.136 920.374 669.17 914.158 662.971 C 893.787 642.657 871.718 609.379 865.791 581.475 C 865.312 579.274 864.892 577.061 864.531 574.838 C 878.002 577.26 891.519 581.73 904.824 585.355 C 900.191 580.115 897.574 577.833 895.079 571.181 C 898.261 572.85 900.289 573.831 903.172 575.938 L 906.259 574.126 C 921.669 583.492 944.476 588.908 962.4 588.649 C 1004.44 588.041 1032.81 581.728 1062.67 551.988 z"/>
<path transform="translate(0,0)" fill="url(#Gradient2)" d="M 1062.67 551.988 C 1060.6 586.027 985.571 602.488 959.164 599.601 C 937.028 597.181 918.735 592.138 903.172 575.938 L 906.259 574.126 C 921.669 583.492 944.476 588.908 962.4 588.649 C 1004.44 588.041 1032.81 581.728 1062.67 551.988 z"/>
<path transform="translate(0,0)" fill="rgb(66,66,69)" d="M 1513.22 1257.96 C 1536.71 1266.75 1580.63 1291.71 1603.83 1304.41 C 1654.53 1332.18 1715.4 1361.26 1762.53 1394.16 C 1736.94 1388.94 1711.94 1378.77 1687.23 1369.89 C 1659.7 1361.31 1632.75 1352.96 1605.75 1342.75 C 1587.29 1335.77 1569.3 1327.69 1550.75 1321.08 C 1541.1 1369.3 1528.32 1372.3 1504.97 1410.87 C 1512.61 1373.08 1516.31 1344.05 1515.34 1305.19 C 1514.98 1290.82 1512.89 1272.42 1513.19 1259.08 L 1513.22 1257.96 z"/>
<path transform="translate(0,0)" fill="url(#Gradient1)" d="M 596.114 1476.83 C 601.382 1486.19 633.923 1559.12 647.788 1529.55 C 654.742 1514.71 662.411 1492.89 670.309 1476.81 C 677.166 1488.49 683.599 1500.27 687.832 1513.17 C 683.039 1528.25 676.189 1544.05 671.457 1559.39 C 666.065 1576.87 661.445 1594.59 656.706 1612.25 C 648.108 1644.29 641.432 1676.31 633.836 1708.54 C 618.338 1648.96 603.824 1587.75 598.847 1526.5 C 597.771 1513.25 595.084 1489.73 596.114 1476.83 z"/>
<path transform="translate(0,0)" fill="rgb(253,122,17)" d="M 1181.56 594.228 C 1209.09 595.411 1236.12 631.84 1243.72 656.195 C 1251.67 681.647 1250.74 702.31 1238.86 726.054 C 1222.38 711.926 1219.43 707.158 1208.27 688.6 L 1203.39 680.598 C 1203.3 692.419 1202.56 703.777 1201.87 715.571 C 1187.67 702.106 1164.4 669.156 1156.76 650.409 C 1154.97 646.006 1153.8 638.408 1153.05 633.551 C 1158.07 639.41 1160.88 642.343 1166.56 647.554 C 1163.05 639.653 1157.93 634.546 1155.72 625.561 C 1151.12 606.929 1165.25 597.856 1181.56 594.228 z"/>
<path transform="translate(0,0)" fill="rgb(47,46,49)" d="M 685.293 1127.07 C 693.385 1129.59 699.458 1134.16 705.682 1139.77 C 728.392 1160.24 751.65 1177.91 773.147 1199.82 C 762.331 1198.29 738.991 1193.84 729.658 1189.63 C 741.235 1212.88 747.83 1230.32 758.245 1253.51 C 765.195 1266 770.893 1276.51 778.794 1288.44 C 776.848 1287.23 774.91 1286.01 772.981 1284.78 C 725.973 1254.63 696.836 1180.23 685.293 1127.07 z"/>
<path transform="translate(0,0)" fill="rgb(188,88,15)" d="M 413.239 880.619 C 433.136 901.586 440.651 911.156 465.361 926.211 C 474.818 930.921 519.988 948.768 523.142 952.643 C 526.341 966.734 483.765 993.091 470.599 981.916 C 450.279 969.22 429.815 936.443 421.456 914.354 C 417.701 904.429 415.323 891.195 413.239 880.619 z"/>
<path transform="translate(0,0)" fill="rgb(235,149,49)" d="M 413.239 880.619 C 433.136 901.586 440.651 911.156 465.361 926.211 C 464.542 934.573 469.014 972.412 470.599 981.916 C 450.279 969.22 429.815 936.443 421.456 914.354 C 417.701 904.429 415.323 891.195 413.239 880.619 z"/>
<path transform="translate(0,0)" fill="rgb(254,253,245)" d="M 461.638 752.943 C 491.21 748.856 527.837 747.146 557.519 752.049 C 566.613 753.551 582.112 762.078 577.131 773.649 C 563.486 785.682 530.386 773.804 514.547 773.383 C 497.035 772.916 467.986 772.225 451.182 776.604 C 448.91 775.9 449.618 776.301 447.856 774.503 C 447.064 769.169 449.099 763.435 451.688 758.858 C 454.629 753.66 455.885 754.448 461.638 752.943 z"/>
<path transform="translate(0,0)" fill="rgb(152,151,151)" d="M 454.446 1435.91 C 455.354 1436.71 454.925 1436.13 455.178 1437.93 C 449.034 1449.92 443.437 1461.84 437.987 1474.16 C 434.459 1482.13 429.69 1491.95 421.084 1495.22 C 395.805 1504.81 369.223 1508.27 344.416 1519.5 C 343.445 1518.19 343.762 1519 343.84 1516.98 C 380.553 1484.93 414.67 1462.75 454.446 1435.91 z"/>
<path transform="translate(0,0)" fill="rgb(254,253,245)" d="M 931.004 513.828 C 933.567 516.872 933.103 534.75 936.914 542.948 C 945.906 562.291 961.283 569.331 979.564 576.837 C 972.122 576.982 964.682 577.254 957.248 577.653 C 938.017 579.15 911.041 571.567 911.038 548.109 C 911.037 533.665 921.346 523.083 931.004 513.828 z"/>
<path transform="translate(0,0)" fill="rgb(66,66,69)" d="M 386.452 968.595 C 390.922 972.87 391.882 987.417 391.992 993.553 C 392.605 1027.89 389.791 1039.23 358.296 1053.66 L 356.073 1053.78 L 354.875 1052.55 C 354.249 1041.94 380.979 987.316 386.452 968.595 z"/>
<path transform="translate(0,0)" fill="rgb(254,253,245)" d="M 986.335 473.328 C 1020.22 468.932 1022.31 495.477 990.006 506.677 C 978.002 508.355 956.948 506.71 963.894 487.302 C 966.714 479.422 978.738 475.76 986.335 473.328 z"/>
<path transform="translate(0,0)" fill="rgb(66,66,69)" d="M 572.843 467.383 C 585.553 466.253 603.347 470.737 616.489 472.649 C 618.912 473.002 620.585 475.796 621.629 477.92 C 619.341 479.364 607.672 478.528 602.603 479.51 C 589.8 481.992 577.242 486.623 566.648 494.209 L 565.427 495.092 C 555.141 505.957 552.434 511.744 539.612 522.904 C 542.506 501.431 550.109 475.1 572.843 467.383 z"/>
<path transform="translate(0,0)" fill="rgb(66,66,69)" d="M 556.192 860.154 C 569.435 860.724 614.701 869.119 617.406 883.407 L 615.751 885.484 C 601.549 886.542 562.481 878.337 554.485 865.793 C 554.115 861.914 553.755 863.777 556.192 860.154 z"/>
<path transform="translate(0,0)" fill="rgb(152,151,151)" d="M 427.33 851.099 C 433.473 851.554 437.334 851.35 442.706 855.355 C 451.167 861.663 460.305 873.984 462.231 884.516 C 462.73 887.247 462.334 887.16 461.1 888.654 L 456.804 888.402 C 446.453 884.788 419.717 870.511 421.332 857.721 C 423.347 853.914 423.795 853.791 427.33 851.099 z"/>
<path transform="translate(0,0)" fill="rgb(66,66,69)" d="M 620.254 713.567 C 626.874 715.954 621.162 716.179 626.14 716.945 L 629.378 713.847 C 638.157 714.442 649.529 725.335 641.564 734.258 C 639.852 734.385 638.142 734.527 636.433 734.683 C 637.15 739.671 639.736 747.37 641.061 753.018 C 644.928 769.507 647.733 803.265 638.104 818.194 C 630.858 822.743 604.951 808.901 596.111 807.492 C 569.29 803.217 529.487 806.267 523.483 839.388 C 520.769 854.357 521.989 867.594 522.956 882.406 C 520.807 872.953 521.165 862.657 520.798 853.007 C 518.819 801.021 578.053 797.786 614.138 812.063 C 619.306 812.714 635.33 822.152 638.446 814.988 C 646.467 796.546 642.605 771.47 640.102 752.008 C 636.942 727.433 603.483 728.304 587.474 718.727 C 603.801 720.695 618.348 727.474 632.867 734.698 C 629.153 725.966 627.007 720.986 619.622 714.789 L 620.254 713.567 z"/>
<path transform="translate(0,0)" fill="rgb(207,207,208)" d="M 552.59 537.743 C 557.505 544.66 553.931 594.117 572.544 611.806 C 573.773 612.974 573.267 612.078 573.571 614.275 L 570.178 618.316 C 558.596 612.783 551.354 589.932 549.673 578.004 C 547.639 563.579 548.609 551.548 552.59 537.743 z"/>
<path transform="translate(0,0)" fill="rgb(188,88,15)" d="M 1037.85 537.209 C 1040.36 538.512 1040.65 538.304 1041.86 540.75 C 1033.3 556.884 1022.12 558.765 1005.26 559.796 L 1000.37 550.872 C 1002.89 548.827 1011.78 548.253 1016.46 546.836 C 1025.47 544.109 1029.81 541.969 1037.85 537.209 z"/>
<path transform="translate(0,0)" fill="rgb(254,253,245)" d="M 602.813 509.626 C 606.486 508.559 610.45 509.551 613.189 512.222 C 615.927 514.893 617.016 518.831 616.04 522.53 C 615.064 526.229 612.173 529.117 608.473 530.089 C 602.854 531.566 597.092 528.252 595.543 522.652 C 593.994 517.052 597.234 511.247 602.813 509.626 z"/>
<path transform="translate(0,0)" fill="rgb(47,46,49)" d="M 573.998 550.868 C 575.17 551.866 580.671 558.654 581.639 559.986 C 590.665 572.401 594.653 569.998 608.233 572.642 L 608.974 574.499 C 608.285 574.707 607.592 574.9 606.895 575.078 C 589.077 579.587 577.538 567.374 573.998 550.868 z"/>
<path transform="translate(0,0)" fill="rgb(87,87,87)" d="M 895.079 571.181 L 892.116 566.679 L 892.571 565.01 C 895.512 565.32 904.837 572.434 906.259 574.126 L 903.172 575.938 C 900.289 573.831 898.261 572.85 895.079 571.181 z"/>
<path transform="translate(0,0)" fill="rgb(142,57,7)" d="M 1048.36 527.383 C 1046.08 532.936 1044.8 535.501 1041.86 540.75 C 1040.65 538.304 1040.36 538.512 1037.85 537.209 C 1041.32 533.629 1044.65 530.687 1048.36 527.383 z"/>
<path transform="translate(0,0)" fill="rgb(20,21,23)" d="M 948.217 10.5501 C 968.878 8.43177 988.781 12.5676 1009.47 12.5102 C 1029.87 12.4537 1051.32 9.31485 1071.63 10.0417 C 1212.99 15.9857 1351.61 51.0692 1478.78 113.093 C 1495.49 121.195 1514.63 129.388 1529.83 139.834 C 1536.76 144.588 1553.08 152.383 1558.45 157.051 L 1557.78 158.106 C 1553.75 158.899 1551.78 156.455 1547.73 157.15 C 1560.77 165.561 1641.05 213.799 1643.74 222.804 C 1640.11 222.657 1605.61 194.524 1599.11 190.322 C 1583.56 180.278 1566.8 170.749 1551.28 161.275 C 1455.46 102.796 1349.02 61.8254 1239.05 37.694 C 1190.83 27.2312 1138.22 21.8231 1088.96 18.4118 C 1074.42 17.4046 1060.04 14.3236 1045.6 12.6106 C 1008.91 12.2869 970.337 16.6442 934.248 18.9081 C 925.58 18.7037 894.273 23.2808 883.515 24.4512 C 822.987 31.0359 761.758 45.7885 703.875 64.629 C 667.999 76.3067 635.32 87.1174 600.477 102.256 C 581.919 108.675 564.035 121.926 546.457 129.324 C 518.917 140.916 499.033 155.304 474.088 171.04 C 441.523 191.582 409.58 210.624 381.471 237.582 C 374.15 244.604 363.18 250.593 355.561 257.518 C 342.439 267.19 311.167 299.181 297.37 303.085 L 295.841 302.176 C 298.326 294.79 314.52 283.535 320.293 277.786 C 348.627 249.572 381.922 227.113 412.532 201.478 C 420.203 195.054 432.279 190.074 440.383 183.782 C 467.986 162.353 498.689 146.213 528.9 128.902 C 536.467 124.919 544.632 121.888 552.171 117.881 C 632.302 75.2833 722.941 47.3621 811.451 28.5875 C 856.002 19.1375 903.197 14.4893 948.217 10.5501 z"/>
<path transform="translate(0,0)" fill="rgb(20,21,23)" d="M 839.483 85.1624 C 842.315 84.9212 843.304 84.5824 845.986 85.4713 C 842.132 87.9301 839.43 86.1346 835.035 88.2147 C 836.058 89.8684 836.53 90.2642 837.928 91.6008 C 824.053 94.6105 804.938 97.0283 790.539 100.921 C 763.018 108.361 730.923 118.697 702.925 126.563 C 702.027 126.234 701.128 125.904 700.23 125.575 L 702.974 123.737 C 694.656 121.586 659.971 139.719 646.727 143.805 C 640.606 146.197 638.889 148.227 632.131 148.042 C 649.048 143.094 679.814 126.45 694.673 122.955 C 716.818 120.223 739.62 106.65 760.581 101.93 C 786.019 96.2027 813.975 90.5726 839.483 85.1624 z"/>
<path transform="translate(0,0)" fill="rgb(20,21,23)" d="M 168.55 1509.76 C 176.399 1522.6 204.735 1554.51 213.88 1568.67 C 213.865 1568.65 213.916 1571.93 215.255 1573.73 C 222.661 1583.67 232.116 1591.73 240.385 1600.65 C 244.443 1605.03 247.735 1612.66 253.248 1616.98 C 254.71 1618.12 254.359 1617.86 254.767 1619.75 L 253.221 1619.29 C 246.201 1612.39 239.896 1601.13 232.926 1595.56 C 221.911 1586.76 210.39 1582.69 202.492 1568.99 C 198.307 1561.72 164.645 1518.32 165.376 1513.62 L 167.443 1512.78 L 168.55 1509.76 z"/>
<path transform="translate(0,0)" fill="rgb(20,21,23)" d="M 1181.74 88.5297 C 1210.63 82.5124 1283.96 103.465 1312.82 112.513 C 1308.91 113.086 1305.37 111.846 1302.11 114.121 L 1302.98 113.216 L 1302.17 114.247 L 1303.89 115.841 C 1308.23 115.261 1308.9 115.776 1313.21 117.216 L 1312.98 119.046 C 1309.84 120.096 1262.47 104.008 1255.33 103.586 C 1253.73 103.491 1245.49 101.013 1243.61 100.373 C 1244.63 97.6882 1244.64 99.0056 1243.47 96.2961 C 1241.37 94.9671 1241.36 95.1295 1238.86 94.7692 C 1238.06 95.6855 1237.33 96.5914 1236.35 97.3451 C 1233.62 99.4527 1189.49 89.0811 1181.74 88.5297 z"/>
<path transform="translate(0,0)" fill="rgb(47,46,49)" d="M 114.066 725.616 C 115.672 729.118 105.004 763.69 103.303 769.902 C 100.887 778.73 98.3169 791.751 95.5011 800.256 C 94.5231 790.648 109.984 738.449 114.066 725.616 z"/>
<path transform="translate(0,0)" fill="rgb(20,21,23)" d="M 828.736 1872.16 C 828.48 1872.18 872.87 1879.84 877.132 1880.49 L 876.992 1881.62 C 869.458 1881.95 834.886 1876.76 828.507 1873.77 L 828.736 1872.16 z"/>
<path transform="translate(0,0)" fill="rgb(20,21,23)" d="M 726.836 1847.23 C 735.501 1846.32 762.269 1856.5 771.84 1859.88 C 766.179 1860.29 732.725 1849.77 726.836 1847.23 z"/>
<path transform="translate(0,0)" fill="rgb(20,21,23)" d="M 879.995 1881.16 C 886.774 1881.23 902.464 1884.05 909.232 1885.48 C 900.927 1886.02 887.107 1885.75 879.995 1881.16 z"/>
<path transform="translate(0,0)" fill="rgb(20,21,23)" d="M 2020.38 808.632 C 2023.68 812.044 2026.4 831.781 2025.65 836.898 C 2023.36 830.947 2021.1 815.36 2020.38 808.632 z"/>
<path transform="translate(0,0)" fill="rgb(47,46,49)" d="M 1299.08 1928.12 L 1301.33 1928.26 L 1300.7 1929.42 C 1293.57 1931.68 1289.55 1932.63 1282.19 1934.04 L 1279.72 1933.89 C 1280.96 1931.96 1295.74 1928.95 1299.08 1928.12 z"/>
<path transform="translate(0,0)" fill="rgb(47,46,49)" d="M 1328.38 1843.98 L 1330.34 1843.85 L 1330.28 1845.13 C 1324.43 1847.92 1321.08 1848.96 1314.93 1850.91 L 1313.06 1851.29 L 1312.49 1850.09 C 1316.8 1847.56 1323.49 1845.63 1328.38 1843.98 z"/>
<path transform="translate(0,0)" fill="rgb(20,21,23)" d="M 86.0821 1123.36 L 87.5478 1123.54 C 89.037 1128.97 89.5728 1135.78 90.2404 1141.47 C 87.4658 1138.35 86.3933 1127.61 86.0821 1123.36 z"/>
<path transform="translate(0,0)" fill="rgb(47,46,49)" d="M 773.662 1860.5 C 778.687 1860.44 782.242 1861.98 786.888 1863.77 C 780.669 1864.05 778.63 1864.09 773.662 1860.5 z"/>
</svg>